<svg width="146" height="174" viewBox="0 0 146 174" fill="none" xmlns="http://www.w3.org/2000/svg">
<g clip-path="url(#clip0_101_6)">
<path d="M144.004 1.36178H1.4259V172.421H144.004V1.36178Z" stroke="white" stroke-opacity="0.95"/>
<mask id="mask0_101_6" style="mask-type:luminance" maskUnits="userSpaceOnUse" x="10" y="16" width="124" height="142">
<path d="M133.676 16.7102H10.6542V157.072H133.676V16.7102Z" fill="white"/>
</mask>
<g mask="url(#mask0_101_6)">
<path d="M30.0537 66.674C27.6182 66.674 25.37 66.0752 23.3092 64.8773C21.2859 63.6795 19.6747 62.0702 18.4758 60.049C17.2767 58.0278 16.6772 55.8192 16.6772 53.4239C16.6772 51.0286 17.2767 48.8201 18.4758 46.7989C19.6747 44.7777 21.2859 43.1683 23.3092 41.9704C25.37 40.7726 27.6182 40.1739 30.0537 40.1739C32.4143 40.1739 34.6624 40.8103 36.7981 42.0827C38.9339 43.3179 40.5076 44.9461 41.5192 46.9673V23.9482H43.3178V66.0564H41.5192V59.9366C40.3952 61.9578 38.7653 63.586 36.6296 64.8212C34.5313 66.0564 32.3393 66.674 30.0537 66.674ZM29.9975 65.1019C32.0582 65.1019 33.9692 64.5778 35.7302 63.5299C37.5288 62.4443 38.9527 61.0222 40.0018 59.2629C41.0884 57.4663 41.6317 55.5385 41.6317 53.4801C41.6317 51.4216 41.0884 49.4938 40.0018 47.6971C38.9527 45.9006 37.5288 44.4597 35.7302 43.374C33.9692 42.2884 32.0582 41.7458 29.9975 41.7458C27.9367 41.7458 26.0257 42.2884 24.2647 43.374C22.5036 44.422 21.0986 45.8444 20.0495 47.641C19.0003 49.4377 18.4758 51.3654 18.4758 53.4239C18.4758 55.5201 18.9816 57.4663 19.9932 59.2629C21.0423 61.0222 22.4475 62.4443 24.2085 63.5299C26.007 64.5778 27.9367 65.1019 29.9975 65.1019ZM50.4118 40.7915H52.2103V46.6304C52.9596 44.7965 54.0463 43.3552 55.4701 42.3073C56.9314 41.2595 58.5802 40.7352 60.416 40.7352C61.5774 40.7352 62.7577 40.9787 63.9568 41.4652V43.5425C62.8701 42.7192 61.6525 42.3073 60.3036 42.3073C58.9547 42.3073 57.6433 42.7192 56.3693 43.5425C55.1329 44.3658 54.1212 45.4702 53.3344 46.855C52.5849 48.2397 52.2103 49.7184 52.2103 51.2904V66.0564H50.4118V40.7915ZM81.2855 65.1581C83.2338 65.1581 85.0885 64.6528 86.8496 63.6422C88.6109 62.6315 90.0721 61.2468 91.2335 59.4875V62.3509C89.8474 63.8856 88.3299 65.0085 86.6811 65.7195C85.0323 66.3933 83.1591 66.7301 81.0606 66.7301C78.7375 66.7301 76.5455 66.1125 74.4848 64.8773C72.4615 63.6422 70.8316 61.9951 69.5952 59.9366C68.3959 57.8782 67.7966 55.6885 67.7966 53.3678C67.7966 50.8602 68.3959 48.6144 69.5952 46.6304C70.7943 44.6092 72.4242 43.0372 74.4848 41.9143C76.5832 40.7915 78.906 40.23 81.4541 40.23C85.3511 40.23 88.667 41.7647 91.4022 44.8338L73.7542 62.2385C74.9907 63.2491 76.1899 63.9979 77.3512 64.4843C78.5126 64.9335 79.8242 65.1581 81.2855 65.1581ZM69.5952 53.1993C69.5952 56.3061 70.6256 58.9634 72.6863 61.1718L89.154 44.8338C87.9175 43.7482 86.7184 42.981 85.5569 42.5319C84.3956 42.0455 83.0089 41.8021 81.3979 41.8021C79.1125 41.8021 77.0702 42.3073 75.2717 43.3179C73.5105 44.2913 72.1243 45.6387 71.1126 47.3603C70.101 49.0819 69.5952 51.0286 69.5952 53.1993ZM111.876 66.7301C109.478 66.7301 107.248 66.1314 105.188 64.9335C103.128 63.7356 101.497 62.1263 100.299 60.1051C99.0988 58.0466 98.4994 55.8381 98.4994 53.4801C98.4994 51.122 99.0988 48.9323 100.299 46.9112C101.497 44.8526 103.128 43.2245 105.188 42.0266C107.248 40.8287 109.478 40.23 111.876 40.23C114.312 40.23 116.616 40.8848 118.789 42.1951C120.963 43.4675 122.48 45.1334 123.341 47.1919V40.8476H125.141V66.1125H123.341V59.8244C122.331 61.9206 120.757 63.6049 118.62 64.8773C116.522 66.1125 114.275 66.7301 111.876 66.7301ZM111.989 65.1581C114.049 65.1581 115.96 64.6339 117.721 63.586C119.482 62.5004 120.869 61.0784 121.881 59.319C122.93 57.5224 123.454 55.5763 123.454 53.4801C123.454 51.4216 122.93 49.4938 121.881 47.6971C120.832 45.9006 119.427 44.4781 117.665 43.4302C115.904 42.3446 113.993 41.8021 111.932 41.8021C109.872 41.8021 107.942 42.3446 106.143 43.4302C104.382 44.5158 102.959 45.9567 101.872 47.7534C100.823 49.5499 100.299 51.4777 100.299 53.5362C100.299 55.5947 100.823 57.5224 101.872 59.319C102.959 61.0784 104.401 62.5004 106.199 63.586C107.999 64.6339 109.928 65.1581 111.989 65.1581Z" fill="white"/>
<path d="M30.0537 114.996C27.6181 114.996 25.3699 114.398 23.3092 113.2C21.2859 112.002 19.6749 110.393 18.4758 108.372C17.2765 106.351 16.6772 104.142 16.6772 101.747C16.6772 99.3512 17.2765 97.1429 18.4758 95.1217C19.6749 93.1005 21.2859 91.4912 23.3092 90.2933C25.3699 89.0953 27.6181 88.4966 30.0537 88.4966C32.4143 88.4966 34.6624 89.1331 36.7981 90.4056C38.9339 91.6408 40.5076 93.2689 41.5192 95.2901V72.2709H43.3178V114.379H41.5192V108.259C40.3952 110.281 38.7653 111.908 36.6296 113.144C34.5311 114.379 32.3392 114.996 30.0537 114.996ZM29.9975 113.424C32.0582 113.424 33.9691 112.9 35.7302 111.853C37.5288 110.767 38.9527 109.345 40.0018 107.585C41.0886 105.789 41.6317 103.862 41.6317 101.803C41.6317 99.7445 41.0886 97.8166 40.0018 96.02C38.9527 94.2233 37.5288 92.7825 35.7302 91.6969C33.9691 90.6113 32.0582 90.0687 29.9975 90.0687C27.9369 90.0687 26.0259 90.6113 24.2647 91.6969C22.5035 92.7447 21.0984 94.1672 20.0495 95.9639C19.0005 97.7605 18.4758 99.6882 18.4758 101.747C18.4758 103.843 18.9816 105.789 19.9932 107.585C21.0423 109.345 22.4473 110.767 24.2085 111.853C26.007 112.9 27.9369 113.424 29.9975 113.424ZM57.1544 114.996C54.7566 114.996 52.5269 114.398 50.4662 113.2C48.4056 112.002 46.7757 110.393 45.5765 108.372C44.3773 106.313 43.7779 104.105 43.7779 101.747C43.7779 99.3885 44.3773 97.199 45.5765 95.1778C46.7757 93.1194 48.4056 91.4912 50.4662 90.2933C52.5269 89.0953 54.7566 88.4966 57.1544 88.4966C59.5901 88.4966 61.8944 89.1516 64.0676 90.4617C66.2406 91.7341 67.7581 93.4001 68.62 95.4585V89.1142H70.4186V114.379H68.62V108.091C67.6083 110.187 66.0346 111.871 63.8989 113.144C61.8005 114.379 59.5523 114.996 57.1544 114.996ZM57.2669 113.424C59.3275 113.424 61.2384 112.9 62.9996 111.853C64.7608 110.767 66.147 109.345 67.1587 107.585C68.2077 105.789 68.7324 103.843 68.7324 101.747C68.7324 99.6882 68.2077 97.7605 67.1587 95.9639C66.1097 94.1672 64.7046 92.7447 62.9434 91.6969C61.1823 90.6113 59.2713 90.0687 57.2106 90.0687C55.15 90.0687 53.2202 90.6113 51.4216 91.6969C49.6605 92.7825 48.2369 94.2233 47.1502 96.02C46.1012 97.8166 45.5765 99.7445 45.5765 101.803C45.5765 103.862 46.1012 105.789 47.1502 107.585C48.2369 109.345 49.6794 110.767 51.4779 111.853C53.2764 112.9 55.2062 113.424 57.2669 113.424ZM92.2818 114.996L86.549 102.757L80.76 114.996L68.62 89.1142H70.4747L80.8162 111.067L85.706 100.793L80.3103 89.2265H82.1089L86.6052 98.9952L91.2139 89.1142H93.0125L87.5045 100.848L92.2818 111.123L102.455 89.1704H104.253L92.2818 114.996ZM102.455 89.1142H104.253V94.7287C105.078 92.8571 106.483 91.36 108.468 90.2372C110.455 89.077 112.646 88.4966 115.045 88.4966C118.155 88.4966 120.609 89.4884 122.407 91.4723C124.242 93.4184 125.161 96.1511 125.161 99.6691V114.379H123.362V99.6691C123.362 96.6376 122.613 94.2795 121.114 92.5952C119.653 90.9109 117.592 90.0687 114.932 90.0687C112.984 90.0687 111.185 90.5178 109.536 91.4162C107.925 92.2772 106.633 93.4747 105.658 95.0094C104.722 96.5441 104.253 98.2846 104.253 100.23V114.379H102.455V89.1142Z" fill="white"/>
<path d="M18.7903 130.396H19.4958V132.818C19.8926 132.025 20.5098 131.387 21.3476 130.902C22.1854 130.403 23.0672 130.153 23.9931 130.153C24.9485 130.153 25.8229 130.388 26.6165 130.858C27.425 131.327 28.0643 131.96 28.5346 132.752C29.0048 133.544 29.2401 134.411 29.2401 135.351C29.2401 136.29 29.0048 137.157 28.5346 137.949C28.0643 138.742 27.425 139.374 26.6165 139.843C25.8229 140.313 24.9485 140.548 23.9931 140.548C23.0966 140.548 22.2295 140.305 21.3917 139.821C20.5687 139.336 19.9367 138.698 19.4958 137.905V144.71H18.7903V130.396ZM24.0373 139.931C24.8456 139.931 25.5951 139.726 26.2859 139.314C26.9767 138.889 27.5204 138.331 27.9173 137.641C28.3288 136.936 28.5346 136.173 28.5346 135.351C28.5346 134.544 28.3288 133.787 27.9173 133.082C27.5058 132.377 26.9546 131.82 26.2639 131.408C25.5731 130.983 24.8235 130.77 24.0152 130.77C23.2069 130.77 22.4499 130.983 21.7444 131.408C21.0537 131.834 20.4952 132.399 20.069 133.104C19.6575 133.809 19.4517 134.565 19.4517 135.373C19.4517 136.18 19.6575 136.936 20.069 137.641C20.4952 138.331 21.0611 138.889 21.7665 139.314C22.472 139.726 23.2288 139.931 24.0373 139.931ZM31.4495 123.789H32.155V132.444C32.4636 131.783 32.9854 131.239 33.7202 130.814C34.4698 130.374 35.2267 130.153 35.991 130.153C37.3872 130.153 38.4601 130.536 39.2097 131.298C39.974 132.062 40.3561 133.141 40.3561 134.535V140.305H39.6505V134.535C39.6505 133.332 39.3272 132.407 38.6805 131.761C38.0486 131.1 37.1521 130.77 35.991 130.77C35.2855 130.77 34.6388 130.939 34.0509 131.277C33.463 131.599 33.0001 132.055 32.662 132.642C32.324 133.215 32.155 133.846 32.155 134.535V140.305H31.4495V123.789ZM47.8577 140.658C46.8584 140.658 45.9545 140.416 45.1461 139.931C44.3378 139.433 43.7058 138.779 43.2502 137.971C42.7946 137.149 42.5668 136.261 42.5668 135.306C42.5668 134.367 42.7946 133.494 43.2502 132.686C43.7205 131.879 44.3525 131.239 45.1461 130.77C45.9545 130.286 46.851 130.043 47.8357 130.043C48.8057 130.043 49.6875 130.286 50.4813 130.77C51.2896 131.239 51.9215 131.879 52.3772 132.686C52.8328 133.494 53.0606 134.367 53.0606 135.306C53.0606 136.29 52.8401 137.193 52.3992 138.016C51.9583 138.823 51.341 139.469 50.5474 139.953C49.7684 140.423 48.8719 140.658 47.8577 140.658ZM47.8577 140.041C48.6955 140.041 49.4598 139.829 50.1506 139.403C50.8413 138.977 51.3778 138.412 51.7599 137.707C52.1567 136.988 52.3551 136.202 52.3551 135.351C52.3551 134.514 52.1567 133.736 51.7599 133.016C51.3631 132.297 50.8193 131.724 50.1285 131.298C49.4377 130.872 48.6735 130.66 47.8357 130.66C46.998 130.66 46.2264 130.88 45.5209 131.32C44.8301 131.746 44.279 132.319 43.8675 133.039C43.4707 133.758 43.2722 134.535 43.2722 135.373C43.2722 136.209 43.4707 136.988 43.8675 137.707C44.279 138.412 44.8301 138.977 45.5209 139.403C46.2264 139.829 47.0053 140.041 47.8577 140.041ZM58.8103 140.438C57.7227 140.438 56.8188 140.107 56.0986 139.447C55.3932 138.786 55.0404 137.876 55.0404 136.716V126.409H55.7459V130.396H58.7882V131.012H55.7459V136.716C55.7459 137.685 56.0325 138.448 56.6057 139.007C57.1936 139.55 57.9284 139.821 58.8103 139.821V140.438ZM65.3824 140.658C64.383 140.658 63.4791 140.416 62.6708 139.931C61.8624 139.433 61.2304 138.779 60.7748 137.971C60.3192 137.149 60.0914 136.261 60.0914 135.306C60.0914 134.367 60.3192 133.494 60.7748 132.686C61.2451 131.879 61.8771 131.239 62.6708 130.77C63.4791 130.286 64.3756 130.043 65.3603 130.043C66.3303 130.043 67.2122 130.286 68.0058 130.77C68.8142 131.239 69.4462 131.879 69.9018 132.686C70.3574 133.494 70.5852 134.367 70.5852 135.306C70.5852 136.29 70.3648 137.193 69.9239 138.016C69.4829 138.823 68.8657 139.469 68.072 139.953C67.2931 140.423 66.3965 140.658 65.3824 140.658ZM65.3824 140.041C66.2202 140.041 66.9844 139.829 67.6752 139.403C68.366 138.977 68.9024 138.412 69.2845 137.707C69.6814 136.988 69.8797 136.202 69.8797 135.351C69.8797 134.514 69.6814 133.736 69.2845 133.016C68.8876 132.297 68.3439 131.724 67.6531 131.298C66.9624 130.872 66.1981 130.66 65.3603 130.66C64.5226 130.66 63.751 130.88 63.0455 131.32C62.3548 131.746 61.8036 132.319 61.3921 133.039C60.9953 133.758 60.7969 134.535 60.7969 135.373C60.7969 136.209 60.9953 136.988 61.3921 137.707C61.8036 138.412 62.3548 138.977 63.0455 139.403C63.751 139.829 64.5299 140.041 65.3824 140.041ZM79.6577 131.783H76.5713V131.1H79.6577V128.039H80.3852V131.1H83.4275V131.783H80.3852V134.734H79.6577V131.783ZM96.1602 140.305H95.4548V131.012H90.6929V140.305H89.9874V129.977C89.9874 129.287 90.1491 128.663 90.4724 128.105C90.8105 127.533 91.266 127.085 91.8392 126.762C92.4271 126.424 93.0665 126.255 93.7572 126.255V126.872C93.1988 126.872 92.6843 127.012 92.214 127.29C91.7438 127.555 91.3689 127.929 91.0897 128.414C90.8252 128.883 90.6929 129.405 90.6929 129.977V130.396H96.1602V140.305ZM95.8075 126.607C96.0133 126.607 96.1897 126.681 96.3366 126.828C96.4983 126.974 96.5791 127.15 96.5791 127.357C96.5791 127.576 96.4983 127.76 96.3366 127.907C96.1897 128.054 96.0133 128.127 95.8075 128.127C95.6018 128.127 95.418 128.054 95.2564 127.907C95.1094 127.76 95.0359 127.576 95.0359 127.357C95.0359 127.15 95.1094 126.974 95.2564 126.828C95.418 126.681 95.6018 126.607 95.8075 126.607ZM102.928 140.504C102.238 140.504 101.606 140.35 101.032 140.041C100.459 139.719 100.003 139.271 99.6656 138.698C99.3277 138.126 99.1588 137.487 99.1588 136.782V123.789H99.8636V136.782C99.8636 137.369 99.9962 137.898 100.26 138.368C100.54 138.838 100.914 139.212 101.385 139.491C101.855 139.755 102.369 139.888 102.928 139.888V140.504ZM105.209 130.396H105.913V131.893C106.59 130.733 107.677 130.153 109.177 130.153C109.897 130.153 110.522 130.359 111.05 130.77C111.58 131.167 111.947 131.768 112.153 132.575C112.344 131.856 112.762 131.277 113.409 130.836C114.071 130.381 114.813 130.153 115.636 130.153C116.709 130.153 117.54 130.469 118.127 131.1C118.715 131.717 119.009 132.598 119.009 133.743V140.305H118.303V133.743C118.303 132.818 118.061 132.091 117.576 131.563C117.106 131.034 116.481 130.77 115.702 130.77C115.114 130.77 114.571 130.917 114.071 131.21C113.571 131.489 113.174 131.872 112.88 132.356C112.586 132.84 112.439 133.376 112.439 133.963V140.305H111.734V134.139C111.734 133.082 111.484 132.26 110.984 131.673C110.484 131.071 109.838 130.77 109.044 130.77C108.515 130.77 108.008 130.902 107.523 131.167C107.053 131.431 106.664 131.791 106.355 132.246C106.06 132.686 105.913 133.17 105.913 133.699V140.305H105.209V130.396ZM124.189 140.548C123.484 140.548 122.859 140.431 122.315 140.195C121.771 139.946 121.382 139.631 121.147 139.248V138.081C121.426 138.712 121.808 139.183 122.293 139.491C122.778 139.785 123.395 139.931 124.145 139.931C124.865 139.931 125.446 139.711 125.886 139.271C126.328 138.816 126.548 138.236 126.548 137.531C126.548 136.929 126.423 136.466 126.173 136.144C125.924 135.806 125.519 135.468 124.961 135.13L124.123 134.646C123.52 134.279 123.064 133.992 122.757 133.787C122.462 133.567 122.227 133.325 122.051 133.06C121.875 132.782 121.787 132.458 121.787 132.091C121.787 131.504 121.992 131.034 122.403 130.682C122.815 130.329 123.351 130.153 124.013 130.153C124.821 130.153 125.498 130.337 126.041 130.704V131.673C125.586 131.071 124.932 130.77 124.079 130.77C123.608 130.77 123.226 130.887 122.933 131.122C122.638 131.357 122.491 131.658 122.491 132.025C122.491 132.348 122.579 132.634 122.757 132.884C122.933 133.119 123.175 133.339 123.484 133.544C123.807 133.751 124.336 134.059 125.071 134.47C125.821 134.896 126.371 135.336 126.725 135.791C127.077 136.232 127.253 136.811 127.253 137.531C127.253 138.441 126.953 139.176 126.35 139.733C125.762 140.276 125.042 140.548 124.189 140.548Z" fill="white"/>
</g>
</g>
<defs>
<clipPath id="clip0_101_6">
<rect width="145" height="173" fill="white" transform="translate(0.107361 0.195652)"/>
</clipPath>
</defs>
</svg>
